<?xml version="1.0" encoding="UTF-8"?>
<svg id="Layer_2" data-name="Layer 2" xmlns="http://www.w3.org/2000/svg" xmlns:xlink="http://www.w3.org/1999/xlink" viewBox="0 0 66.407479228814736 66.407479228813827">
  <defs>
    <style>
      .cls-1 {
        fill: url(#linear-gradient);
      }
    </style>
    <linearGradient id="linear-gradient" x1="9.712093837214525" y1="56.695385391600212" x2="56.695385391601576" y2="9.712093837213171" gradientUnits="userSpaceOnUse">
      <stop offset=".143859710693359" stop-color="#000810"/>
      <stop offset="1" stop-color="#53565a"/>
    </linearGradient>
  </defs>
  <g id="Layer_19" data-name="Layer 19">
    <path class="cls-1" d="M12.783439751545302,50.137646817755012c2.822317867225138-2.158243074936763,5.976673130593554-3.859934730175155,9.463065790107066-5.105074965713357,3.486392659513513-1.24514023554184,7.138804017096845-1.867710353310031,10.957234072753636-1.867710353310031,3.818430055655881,0,7.470841413241942.622570117768191,10.957234072753636,1.867710353310031,3.486392659513513,1.245140235538202,6.640747922881928,2.946831890776593,9.463065790107066,5.105074965713357,1.93688312201084-2.268923051400634,3.444887984995148-4.842212871517404,4.52400952246353-7.719869460352129s1.618682306201663-5.949002503164593,1.618682306201663-9.21403774299506c0-7.360163970022768-2.587126400452689-13.627369822241235-7.761374134866855-18.80161755665722-5.174247734415985-5.174247734415985-11.441453586634452-7.761374134868674-18.801617556659039-7.761374134868674-7.360161436778071,0-13.627367288996538,2.587126400452689-18.80161755665722,7.761374134868674-5.174249001036515,5.174247734415985-7.761374134868674,11.441453586634452-7.761374134868674,18.80161755665722,0,3.265035239830468.5395607687351,6.336381154165792,1.618682306203482,9.21403774299506s2.587125133830341,5.450946408951495,4.524009522461711,7.719869460352129ZM33.203739614406004,36.524113575849697c-3.265035239830468,0-6.018177805111918-1.120626211986746-8.259430229083591-3.361878635962057-2.241252423971673-2.241252423969854-3.361878635958419-4.994397522496001-3.361878635958419-8.259430229081772s1.120626211986746-6.018177805110099,3.361878635958419-8.25943022908541c2.241252423971673-2.241252423969854,4.994394989253124-3.3618786359566,8.259430229083591-3.3618786359566,3.26503270658759,0,6.018177805111918,1.120626211986746,8.259430229083591,3.3618786359566,2.241252423973492,2.241252423975311,3.361878635961148,4.994397522499639,3.361878635961148,8.25943022908541s-1.120626211987656,6.018177805111918-3.361878635961148,8.259430229081772c-2.241252423971673,2.241252423975311-4.994397522496001,3.361878635962057-8.259430229083591,3.361878635962057ZM33.203739614406004,66.407479228813827c-4.593184824407217,0-8.909670974280743-.871598164878378-12.94945844961876-2.614794494635134s-7.553850762276852-4.108962777281704-10.542187327573629-7.097299342578481c-2.988336565295867-2.988336565294958-5.354103012823543-6.502399852237431-7.0972993425803-10.542187327575448-1.743196329754937-4.039787475338017-2.614794494633315-8.356273625211543-2.614794494633315-12.949458449616941,0-4.59318229116252.871598164878378-8.909668441036047,2.614794494633315-12.94945844961876,1.743196329756756-4.039790008584532,4.108962777284432-7.553850762276852,7.0972993425803-10.542187327575448,2.988336565296777-2.988336565294958,6.502399852235612-5.354103012823543,10.542187327573629-7.0972993425803S28.610554789998787,0,33.203739614406004,0c4.59318229116252,0,8.909668441036047.871598164878378,12.94945844961876,2.614794494633315s7.553850762278671,4.108962777285342,10.542187327575448,7.0972993425803c2.988336565296777,2.988336565298596,5.354103012821724,6.502397318990916,7.097299342578481,10.542187327575448s2.614794494636044,8.35627615845624,2.614794494636044,12.94945844961876c0,4.593184824405398-.871598164879288,8.909670974278924-2.614794494636044,12.949458449616941s-4.108962777281704,7.55385076228049-7.097299342578481,10.542187327575448-6.502397318992735,5.354103012821724-10.542187327575448,7.097299342578481-8.35627615845624,2.614794494635134-12.94945844961876,2.614794494635134Z"/>
  </g>
</svg>