<?xml version="1.0" encoding="UTF-8"?>
<svg id="Icons" xmlns="http://www.w3.org/2000/svg" viewBox="0 0 90 90">
  <defs>
    <style>
      .cls-1 {
        fill: #fff;
      }
    </style>
  </defs>
  <!-- Large British Pound Sterling symbol -->
  <path class="cls-1" d="M55,20c-11.046,0-20,8.954-20,20v8h-7c-2.209,0-4,1.791-4,4s1.791,4,4,4h7v6c0,3.314-2.686,6-6,6H25c-2.209,0-4,1.791-4,4s1.791,4,4,4h40c2.209,0,4-1.791,4-4s-1.791-4-4-4H50c-2.209,0-4-1.791-4-4v-6h12c2.209,0,4-1.791,4-4s-1.791-4-4-4H46v-8c0-6.627,5.373-12,12-12s12,5.373,12,12c0,2.209,1.791,4,4,4s4-1.791,4-4C78,28.954,66.046,20,55,20z"/>
</svg>
