<?xml version="1.0" encoding="UTF-8"?>
<svg id="Layer_2" data-name="Layer 2" xmlns="http://www.w3.org/2000/svg" xmlns:xlink="http://www.w3.org/1999/xlink" viewBox="0 0 53.12598338304997 66.407479228814736">
  <defs>
    <style>
      .cls-1 {
        fill: url(#linear-gradient);
      }
    </style>
    <linearGradient id="linear-gradient" x1="6.969724552920525" y1="47.585396505164681" x2="46.156258195520145" y2="8.398862862565069" gradientUnits="userSpaceOnUse">
      <stop offset=".143859710693359" stop-color="#000810"/>
      <stop offset="1" stop-color="#53565a"/>
    </linearGradient>
  </defs>
  <g id="Layer_19" data-name="Layer 19">
    <path class="cls-1" d="M26.562991691525895,43.164861498730716c3.099014008514132,0,5.893663781556825-.760918188414507,8.383944252636866-2.282757098491857s4.454836753764539-3.527897334030058,5.893663781556825-6.018177805111918c-1.936883122009021-1.604848259112259-4.122799357617623-2.836151914314542-6.55773857384338-3.693916032101697-2.434939216227576-.857761584542459-5.008229036342527-1.286644910058385-7.71986946035031-1.286644910058385-2.711637890763086,0-5.284927710878037.428883325515926-7.71986946035031,1.286644910058385-2.434941749470454.857764117787156-4.620852918589662,2.089067772989438-6.557738573845199,3.693916032101697,1.438829561038801,2.49028047108186,3.403383310476784,4.496338895038207,5.893663781558644,6.018177805111918,2.490280471080041,1.521838910077349,5.284927710876218,2.282757098491857,8.383944252636866,2.282757098491857ZM26.562991691525895,26.562991691526804c1.826205678791666,0,3.389546730140864-.650238211954274,4.690028220535169-1.950719702348579s1.950719702344941-2.863822541739864,1.950719702344941-4.69002822053335-.650238211950636-3.389546730139045-1.950719702344941-4.69002822053335-2.863822541743502-1.950719702348579-4.690028220535169-1.950719702348579c-1.826205678793485,0-3.389549263385561.650238211954274-4.690028220535169,1.950719702348579s-1.95071970234676,2.863822541739864-1.95071970234676,4.69002822053335.650240745197152,3.389546730142683,1.95071970234676,4.69002822053335,2.863822541741683,1.950719702348579,4.690028220535169,1.950719702348579ZM26.562991691525895,57.608488230997864c6.751425366099284-6.19803055027387,11.759659468931204-11.828832237633833,15.024692175518794-16.892402528830644s4.897551593125172-9.559909186233199,4.897551593125172-13.489019218352041c0-6.032014385447837-1.923051608166134-10.971070653091374-5.76914975800355-14.81716880293061s-8.563799531044424-5.76914975800355-14.153094010640416-5.76914975800355c-5.589297012840689,0-10.306993327558303,1.923051608164315-14.153094010642235,5.76914975800355s-5.769149758001731,8.785154417482772-5.769149758001731,14.81716880293061c0,3.929110032118842,1.632516353292885,8.42544892715523,4.897551593123353,13.489019218352041,3.265035239832287,5.063570291196811,8.273264276176633,10.694371978556774,15.024692175520613,16.892402528830644ZM26.562991691525895,66.407479228814736c-8.909670974280743-7.581520123083465-15.564252944253894-14.623479477431829-19.963748443162331-21.12587932966926C2.199747749453309,38.779200046913502,0,32.761022241799765,0,27.227066483815179,0,18.926131580211404,2.67013448286707,12.313051751515559,8.010402181977042,7.387832064204304,13.350671147707544,2.462612376898505,19.534867650891101,0,26.562991691525895,0c7.028126573877671,0,13.212323077063047,2.462612376898505,18.552589509548852,7.387832064204304,5.340266432487624,4.925219687311255,8.010402181975223,11.5382995160071,8.010402181975223,19.839234419610875,0,5.533955757984586-2.199747749453309,11.552133563098323-6.599243248361745,18.054533415330297-4.399495498910255,6.502399852237431-11.054080002126284,13.544359206585796-19.963748443162331,21.12587932966926Z"/>
  </g>
</svg>