<?xml version="1.0" encoding="UTF-8"?>
<svg id="Layer_2" data-name="Layer 2" xmlns="http://www.w3.org/2000/svg" xmlns:xlink="http://www.w3.org/1999/xlink" viewBox="0 0 78 78">
  <defs>
    <style>
      .cls-1 {
        fill: none;
        opacity: .8;
        stroke: url(#linear-gradient);
        stroke-width: 1.84px;
      }

      .cls-2 {
        fill: #fff;
      }

      .cls-3 {
        opacity: .3;
      }

      .cls-4 {
        fill: none;
        stroke: #fff;
        stroke-width: 2.5;
        stroke-linecap: round;
        stroke-linejoin: round;
      }

      .cls-5 {
        fill: #4ade80;
      }
    </style>
    <linearGradient id="linear-gradient" x1="1.95" y1="7.91" x2="76.1" y2="70.13" gradientUnits="userSpaceOnUse">
      <stop offset=".08" stop-color="#fff"/>
      <stop offset=".23" stop-color="#fff" stop-opacity=".75"/>
      <stop offset=".38" stop-color="#fff" stop-opacity=".52"/>
      <stop offset=".53" stop-color="#fff" stop-opacity=".34"/>
      <stop offset=".67" stop-color="#fff" stop-opacity=".19"/>
      <stop offset=".80" stop-color="#fff" stop-opacity=".09"/>
      <stop offset=".91" stop-color="#fff" stop-opacity=".02"/>
      <stop offset="1.00" stop-color="#fff" stop-opacity="0"/>
    </linearGradient>
  </defs>
  <g id="Isolation_Mode" data-name="Isolation Mode">
    <g>
      <g>
        <rect class="cls-3" x=".92" y=".92" width="76.21" height="76.21" rx="15.17" ry="15.17"/>
        <rect class="cls-1" x=".92" y=".92" width="76.21" height="76.21" rx="15.17" ry="15.17"/>
      </g>
      <g>
        <!-- Bin/Trash can icon -->
        <!-- Lid -->
        <path class="cls-4" d="M26,28h26c1.1,0,2,0.9,2,2v2H24v-2C24,28.9,24.9,28,26,28z"/>
        <!-- Handle on lid -->
        <path class="cls-4" d="M34,28v-3c0-1.1,0.9-2,2-2h6c1.1,0,2,0.9,2,2v3"/>
        <!-- Bin body -->
        <path class="cls-4" d="M25,32h28l-2,26c-0.1,1-0.9,2-2,2H29c-1.1,0-1.9-1-2-2L25,32z"/>
        <!-- Vertical lines inside bin -->
        <line class="cls-4" x1="33" y1="38" x2="33" y2="52"/>
        <line class="cls-4" x1="39" y1="38" x2="39" y2="52"/>
        <line class="cls-4" x1="45" y1="38" x2="45" y2="52"/>

        <!-- Recycling arrows accent -->
        <circle class="cls-5" cx="56" cy="24" r="2.5"/>
        <circle class="cls-5" cx="22" cy="54" r="2"/>
      </g>
    </g>
  </g>
</svg>
