<?xml version="1.0" encoding="UTF-8"?>
<svg id="Icons" xmlns="http://www.w3.org/2000/svg" viewBox="0 0 90 90">
  <defs>
    <style>
      .cls-1 {
        fill: #fff;
      }
    </style>
  </defs>
  <!-- Study Planner - Calendar with clock/time -->
  <!-- Calendar base -->
  <rect class="cls-1" x="18" y="28" width="40" height="42" rx="4"/>
  <!-- Calendar top bar -->
  <rect class="cls-1" x="18" y="28" width="40" height="10" rx="4"/>
  <!-- Calendar rings -->
  <rect class="cls-1" x="26" y="24" width="4" height="8" rx="1"/>
  <rect class="cls-1" x="46" y="24" width="4" height="8" rx="1"/>
  <!-- Calendar grid (dark for contrast) -->
  <rect x="23" y="42" width="7" height="6" rx="1" fill="#1a1a2e"/>
  <rect x="33" y="42" width="7" height="6" rx="1" fill="#1a1a2e"/>
  <rect x="43" y="42" width="7" height="6" rx="1" fill="#1a1a2e"/>
  <rect x="23" y="52" width="7" height="6" rx="1" fill="#1a1a2e"/>
  <rect x="33" y="52" width="7" height="6" rx="1" fill="#1a1a2e"/>
  <rect x="43" y="52" width="7" height="6" rx="1" fill="#1a1a2e"/>
  <rect x="23" y="62" width="7" height="6" rx="1" fill="#1a1a2e"/>
  <rect x="33" y="62" width="7" height="6" rx="1" fill="#1a1a2e"/>
  <!-- Clock overlay (bottom right) -->
  <circle class="cls-1" cx="62" cy="58" r="14"/>
  <circle cx="62" cy="58" r="10" fill="#1a1a2e"/>
  <!-- Clock hands -->
  <line x1="62" y1="58" x2="62" y2="52" stroke="#fff" stroke-width="2" stroke-linecap="round"/>
  <line x1="62" y1="58" x2="67" y2="58" stroke="#fff" stroke-width="2" stroke-linecap="round"/>
  <!-- Clock center dot -->
  <circle class="cls-1" cx="62" cy="58" r="2"/>
</svg>
