<?xml version="1.0" encoding="UTF-8"?>
<svg id="Icons" xmlns="http://www.w3.org/2000/svg" viewBox="0 0 90 90">
  <defs>
    <style>
      .cls-1 {
        fill: #fff;
      }
    </style>
  </defs>
  <path class="cls-1" d="M67.5,7.5h-45c-4.142,0-7.5,3.358-7.5,7.5v60c0,4.142,3.358,7.5,7.5,7.5h45c4.142,0,7.5-3.358,7.5-7.5V15C75,10.858,71.642,7.5,67.5,7.5z M30,67.5h-7.5v-7.5h7.5V67.5z M30,52.5h-7.5v-7.5h7.5V52.5z M30,37.5h-7.5v-7.5h7.5V37.5z M30,22.5h-7.5V15h7.5V22.5z M67.5,67.5h-30v-7.5h30V67.5z M67.5,52.5h-30v-7.5h30V52.5z M67.5,37.5h-30v-7.5h30V37.5z M67.5,22.5h-30V15h30V22.5z"/>
</svg>
