<?xml version="1.0" encoding="UTF-8"?>
<svg id="Icons" xmlns="http://www.w3.org/2000/svg" viewBox="0 0 90 90">
  <defs>
    <style>
      .cls-1 {
        fill: #fff;
      }
    </style>
  </defs>
  <path class="cls-1" d="M79.646229518250038,38.09291569396737l-27.71156974855694-27.711518885960686c-1.902464530119687-1.902464530119687-4.395952422448318-2.85369679518044-6.889542039969456-2.85369679518044-2.493487892328631,0-4.98707750984795.951283127655188-6.889542039969456,2.853747657776694l-27.801799993354507,27.801749130758253c-3.805030785433701,3.804979922837447-3.805030785433701,9.974104157101465,0,13.779134942535165l27.71156974855694,27.711468023364432c1.662901704303295,1.662901704303295,3.777463258555144,2.598773465459089,5.948889194816729,2.808174772017082l.896402386881164.707549568989634.889688524244775-.70236158422631c2.204791799051236-.190938184314291,4.356889948940079-1.126199594320497,6.044103973996243-2.813362756780407l27.801799993354507-27.801799993354507c3.805030785433701-3.804979922837447,3.805030785433701-9.974104157101465,0-13.779084079938912ZM75.077547720751681,47.303317976409744l-15.730478427138223,15.730427564541969c-2.014057065120141-5.9887146072615-7.796523846758646-10.320631021706504-14.436432266958946-10.320631021706504-6.615596099449249,0-12.37812474356906,4.301551444801589-14.412221671400403,10.256442425914429l-15.575957861356073-15.57590699875982c-.836384523936431-.836486249128939-.961303059011698-1.813149812047413-.961303059011698-2.320911105069172,0-.507710430425504.124816809884578-1.484373993343979.961303059011698-2.320809379876664l27.801901718545196-27.801799993352688c.836384523936431-.836435386532685,1.813048086854906-.961303059013517,2.320860242472918-.961303059013517.507710430425504,0,1.484373993343979.124867672480832,2.32075851728041.961303059013517l27.711569748555121,27.711518885958867c.83648624912712.836435386532685.961303059011698,1.81309894945116.961303059011698,2.320809379876664,0,.507710430427323-.124816809884578,1.484373993343979-.961303059011698,2.320860242472918Z"/>
  <path class="cls-1" d="M45.001375897409162,49.525352195407322c4.896338639093301,0,8.882745440845611-3.909553419627628,9.053236861682308-8.738295669016225h-18.107185799704894c.170694871218075,4.828742249388597,4.157508573738596,8.738295669016225,9.053948938022586,8.738295669016225Z"/>
  <path class="cls-1" d="M49.918161299980056,29.964309959785169v6.530553839415006h-2.146096363596371v-8.584436316978099h-6.080623317719073v8.584436316978099h-1.967365202253859v-6.30106180754774c-2.344358761693002,1.396279977565428-4.010820847695868,3.66882075410831-4.684038164577942,6.30106180754774h-2.290749585808953v2.146096363594552h24.501427882602002v-2.146096363594552h-2.289121982745201c-.709838385797411-2.802020397935848-2.521869220738154-5.157518068090212-5.043433265900603-6.530553839415006Z"/>
</svg>