<?xml version="1.0" encoding="UTF-8"?>
<svg id="Icons" xmlns="http://www.w3.org/2000/svg" viewBox="0 0 90 90">
  <defs>
    <style>
      .cls-1 {
        fill: #fff;
      }
    </style>
  </defs>
  <path class="cls-1" d="M52.5,48.75h18.75v-7.5h-18.75v7.5ZM52.5,37.5h18.75v-7.5h-18.75v7.5ZM18.75,60h30v-2.0625c0-2.8125-1.374999046322046-5.046875953677954-4.125-6.703125s-6.375-2.484375-10.875-2.484375-8.124999046322046.828125953677954-10.875,2.484375c-2.749999523161023,1.656249046322046-4.125,3.890625-4.125,6.703125v2.0625ZM33.75,45c2.0625,0,3.828125953677954-.734375953677954,5.296875-2.203125,1.468749046322046-1.468751907348633,2.203125-3.234375,2.203125-5.296875s-.734375953677954-3.828123092651367-2.203125-5.296875-3.234375-2.203125-5.296875-2.203125-3.828125953677954.734373092651367-5.296875,2.203125-2.203125,3.234375-2.203125,5.296875.734375953677954,3.828123092651367,2.203125,5.296875c1.468749046322046,1.468749046322046,3.234375,2.203125,5.296875,2.203125ZM15,75c-2.0625,0-3.828125238418579-.734374523161023-5.296875-2.203125-1.468749761579602-1.468750476838977-2.203125-3.234375-2.203125-5.296875V22.5c0-2.0625.734375238420398-3.828123092649548,2.203125-5.296875,1.468749761581421-1.468751907348633,3.234375-2.203125,5.296875-2.203125h60c2.0625,0,3.828123092651367.734373092651367,5.296875,2.203125s2.203125,3.234375,2.203125,5.296875v45c0,2.0625-.734373092651367,3.828124523161023-2.203125,5.296875s-3.234375,2.203125-5.296875,2.203125H15ZM15,67.5"/>
</svg>