<?xml version="1.0" encoding="UTF-8"?>
<svg id="Icons" xmlns="http://www.w3.org/2000/svg" viewBox="0 0 90 90">
  <defs>
    <style>
      .cls-1 {
        fill: none;
      }

      .cls-2 {
        fill: #fff;
      }
    </style>
  </defs>
  <rect class="cls-1" width="90" height="90"/>
  <path class="cls-2" d="M48.75,18.75h-7.5V3.75h7.5v15ZM3.75,41.25h15v7.5H3.75v-7.5ZM71.25,48.75v-7.5h15v7.5h-15ZM66.22499942779541,29.100000858306885l-5.28749942779541-5.28749942779541,10.612499713897705-10.612499713897705,5.28749942779541,5.28749942779541-10.612499713897705,10.612499713897705ZM13.162499964237213,18.487499356269836l5.287500321865082-5.28749942779541,10.612499713897705,10.612499713897705-5.28749942779541,5.28749942779541s-10.612499713897705-10.612499713897705-10.612500607967377-10.612499713897705ZM17.8125,63.75c0,2.588832378387451,2.098665833473206,4.6875,4.6875,4.6875s4.6875-2.098667621612549,4.6875-4.6875-2.098665833473206-4.6875-4.6875-4.6875-4.6875,2.098667621612549-4.6875,4.6875ZM62.8125,63.75c0,2.588832378387451,2.098667621612549,4.6875,4.6875,4.6875s4.6875-2.098667621612549,4.6875-4.6875-2.098667621612549-4.6875-4.6875-4.6875-4.6875,2.098667621612549-4.6875,4.6875ZM29.0625,78.75c0,2.588832378387451,2.098664045333862,4.6875,4.6875,4.6875s4.6875-2.098667621612549,4.6875-4.6875-2.098664045333862-4.6875-4.6875-4.6875-4.6875,2.098667621612549-4.6875,4.6875ZM40.3125,63.75c0,2.588832378387451,2.098664045333862,4.6875,4.6875,4.6875s4.6875-2.098667621612549,4.6875-4.6875-2.098664045333862-4.6875-4.6875-4.6875-4.6875,2.098667621612549-4.6875,4.6875ZM51.5625,78.75c0,2.588832378387451,2.098664045333862,4.6875,4.6875,4.6875s4.6875-2.098667621612549,4.6875-4.6875-2.098664045333862-4.6875-4.6875-4.6875-4.6875,2.098667621612549-4.6875,4.6875ZM63.75,48.75v-3.75c0-10.350000858306885-8.399999141693115-18.75-18.75-18.75s-18.75,8.399999141693115-18.75,18.75v3.75h37.5Z"/>
</svg>