<?xml version="1.0" encoding="UTF-8"?>
<svg id="Layer_2" data-name="Layer 2" xmlns="http://www.w3.org/2000/svg" xmlns:xlink="http://www.w3.org/1999/xlink" viewBox="0 0 78.046703942227396 78.046703938798601">
  <defs>
    <style>
      .cls-1 {
        fill: none;
        opacity: .8;
        stroke: url(#linear-gradient);
        stroke-width: 1.83888709973757px;
      }

      .cls-2 {
        fill: #fff;
      }

      .cls-3 {
        fill: #cccecf;
      }

      .cls-4 {
        opacity: .3;
      }

      .cls-5 {
        fill: #fdbe14;
      }
    </style>
    <linearGradient id="linear-gradient" x1="1.947193438457361" y1="7.912761019177196" x2="76.099510503769253" y2="70.13394291962112" gradientUnits="userSpaceOnUse">
      <stop offset=".082908780951249" stop-color="#fff"/>
      <stop offset=".233744955760977" stop-color="#fff" stop-opacity=".746308635755232"/>
      <stop offset=".38476116934525" stop-color="#fff" stop-opacity=".522004592099695"/>
      <stop offset=".531350187507077" stop-color="#fff" stop-opacity=".335105324242697"/>
      <stop offset=".669667342055917" stop-color="#fff" stop-opacity=".189572627407388"/>
      <stop offset=".797682941155014" stop-color="#fff" stop-opacity=".085291650366154"/>
      <stop offset=".911587020513398" stop-color="#fff" stop-opacity=".022124410686697"/>
      <stop offset=".999846" stop-color="#fff" stop-opacity="0"/>
    </linearGradient>
  </defs>
  <g id="Isolation_Mode" data-name="Isolation Mode">
    <g>
      <g>
        <rect class="cls-4" x=".919443549868447" y=".919443549868447" width="76.207816842490502" height="76.207816839061707" rx="15.170818025570044" ry="15.170818025570044"/>
        <rect class="cls-1" x=".919443549868447" y=".919443549868447" width="76.207816842490502" height="76.207816839061707" rx="15.170818025570044" ry="15.170818025570044"/>
      </g>
      <g>
        <path class="cls-2" d="M57.973316547157083,30.450805768768987c4.735110742030884,0,8.587682647710608,3.852249811208821,8.587682647710608,8.587682647699694s-3.852571905679724,8.587682647710608-8.587682647710608,8.587682647710608c-4.735110742018151,0-8.587360553228791-3.852249811219735-8.587360553228791-8.587682647710608s3.85224981121064-8.587682647699694,8.587360553228791-8.587682647699694ZM57.973316547157083,43.404156806198444c2.407334037550754,0,4.365668389742495-1.958334352188103,4.365668389742495-4.365668389729763,0-2.40733403753984-1.958334352191741-4.365668389729763-4.365668389742495-4.365668389729763-2.407011943068937,0-4.365346295267955,1.958334352189922-4.365346295267955,4.365668389729763,0,2.407334037541659,1.958334352199017,4.365668389729763,4.365346295267955,4.365668389729763Z"/>
        <rect class="cls-2" x="48.930835715398644" y="30.731030898059544" width="4.222014257969931" height="23.599214915138873"/>
        <path class="cls-2" d="M20.07338739505758,47.626171064179289c-4.735110742029065,0-8.587682647699694-3.85224981121064-8.587682647699694-8.587682647701513,0-4.735432836489053,3.852571905670629-8.587682647708789,8.587682647699694-8.587682647708789,4.735110742021789,0,8.58736055323061,3.852249811219735,8.58736055323061,8.587682647708789,0,4.735432836490872-3.852249811208821,8.587682647701513-8.58736055323061,8.587682647701513ZM20.07338739505758,34.672820026749832c-2.407334037548935,0-4.365668389738858,1.958334352188103-4.365668389738858,4.365668389727944,0,2.407334037541659,1.958334352189922,4.365668389731582,4.365668389738858,4.365668389731582,2.407011943079851,0,4.365346295271593-1.958334352189922,4.365346295271593-4.365668389731582,0-2.40733403753984-1.958334352191741-4.365668389727944-4.365346295271593-4.365668389727944Z"/>
        <rect class="cls-2" x="24.893853170537113" y="23.716458125600184" width="4.222014257960836" height="23.629487809288548"/>
        <rect class="cls-2" x="31.069483498984741" y="38.323027676692689" width="11.56020753349679" height="5.432065859563274" transform="translate(-18.226003822155917 38.076655597635984) rotate(-45.000000000000014)"/>
        <rect class="cls-2" x="38.481083746705259" y="35.258956839726736" width="5.43206585957163" height="11.560207533489717" transform="translate(-16.952641939151 41.150823125357753) rotate(-44.999999999968161)"/>
        <rect class="cls-2" x="34.133554335953775" y="30.911427428966654" width="5.432065859563274" height="11.560207533490356" transform="translate(-15.151836294397214 36.803293714598524) rotate(-44.999999999961801)"/>
        <rect class="cls-3" x="35.417012909751044" y="33.975498265927136" width="11.560207533480067" height="5.432065859574848" transform="translate(-13.878474411394912 39.877461242417922) rotate(-45.000000000031868)"/>
      </g>
      <path class="cls-5" d="M35.440941453278356,27.02122625264019c0-1.994730389251345,1.587663835491185-3.58239422474071,3.582394224738891-3.58239422474071,1.994762975440608,0,3.582426810932702,1.587663835489366,3.582426810932702,3.58239422474071,0,1.994762975438789-1.587663835492094,3.582426810928155-3.582426810932702,3.582426810928155-1.994730389247707,0-3.582394224738891-1.587663835489366-3.582394224738891-3.582426810928155Z"/>
    </g>
  </g>
</svg>