<?xml version="1.0" encoding="UTF-8"?>
<svg id="Icons" xmlns="http://www.w3.org/2000/svg" viewBox="0 0 90 90">
  <defs>
    <style>
      .cls-1 {
        fill: #fff;
      }
    </style>
  </defs>
  <path class="cls-1" d="M15,22.5h-7.5v52.5c0,4.125001430511475,3.375000357627869,7.5,7.5,7.5h52.5v-7.5H15V22.5ZM75,7.5H30c-4.124999642372131,0-7.5,3.375000357627869-7.5,7.5v45c0,4.125001430511475,3.375000357627869,7.5,7.5,7.5h45c4.125001430511475,0,7.5-3.374998569488525,7.5-7.5V15c0-4.124999642372131-3.374998569488525-7.5-7.5-7.5ZM71.25,41.25h-37.5v-7.5h37.5v7.5ZM56.25,56.25h-22.5v-7.5h22.5v7.5ZM71.25,26.25h-37.5v-7.5h37.5v7.5Z"/>
</svg>