<?xml version="1.0" encoding="UTF-8"?>
<svg id="Layer_2" data-name="Layer 2" xmlns="http://www.w3.org/2000/svg" xmlns:xlink="http://www.w3.org/1999/xlink" viewBox="0 0 78.046703942225577 78.046703938798601">
  <defs>
    <style>
      .cls-1 {
        fill: none;
        opacity: .8;
        stroke: url(#linear-gradient);
        stroke-width: 1.83888709973757px;
      }

      .cls-2 {
        fill: #fff;
      }

      .cls-3 {
        opacity: .3;
      }

      .cls-4 {
        fill: #fdbe14;
      }
    </style>
    <linearGradient id="linear-gradient" x1="1.947193438457361" y1="7.912761019175377" x2="76.099510503770645" y2="70.133942919620466" gradientUnits="userSpaceOnUse">
      <stop offset=".082908780951249" stop-color="#fff"/>
      <stop offset=".233744955760977" stop-color="#fff" stop-opacity=".746308635755232"/>
      <stop offset=".38476116934525" stop-color="#fff" stop-opacity=".522004592099695"/>
      <stop offset=".531350187507077" stop-color="#fff" stop-opacity=".335105324242697"/>
      <stop offset=".669667342055917" stop-color="#fff" stop-opacity=".189572627407388"/>
      <stop offset=".797682941155014" stop-color="#fff" stop-opacity=".085291650366154"/>
      <stop offset=".911587020513398" stop-color="#fff" stop-opacity=".022124410686697"/>
      <stop offset=".999846" stop-color="#fff" stop-opacity="0"/>
    </linearGradient>
  </defs>
  <g id="Isolation_Mode" data-name="Isolation Mode">
    <g>
      <g>
        <rect class="cls-3" x=".919443549868447" y=".919443549868447" width="76.207816842488683" height="76.207816839061707" rx="15.170818025570043" ry="15.170818025570043"/>
        <rect class="cls-1" x=".919443549868447" y=".919443549868447" width="76.207816842488683" height="76.207816839061707" rx="15.170818025570043" ry="15.170818025570043"/>
      </g>
      <g>
        <g>
          <path class="cls-2" d="M24.485903108416096,32.109588027029531c4.233759365901278,0,6.879854896311372,1.872629974830488,8.060452178031483,3.623126949059952l-4.070926227161181,3.785927501630795c-.773498141759774-1.139831971211606-2.035463113577862-1.87259738865032-3.704559811518266-1.87259738865032-2.605395392281935,0-4.60015836770981,1.791197112368536-4.60015836770981,4.762991506449907,0,2.971794394088647,1.994762975427875,4.803724230780062,4.60015836770981,4.803724230780062,1.669096697940404,0,2.931061669758492-.81419827990976,3.704559811518266-1.913395285340812l4.070926227161181,3.826725398310373c-1.180597281720111,1.709796836090391-3.826692812130204,3.623422958618903-8.060452178031483,3.623422958618903-6.147089478879934,0-10.74724784657883-4.15268768534952-10.74724784657883-10.340477302368527,0-6.147122065051008,4.600158367698896-10.299448568490334,10.74724784657883-10.299448568490334Z"/>
          <path class="cls-2" d="M35.81884253467797,33.086915455238341h6.269222479488235v19.662598442650051h-6.269222479488235v-19.662598442650051Z"/>
          <path class="cls-2" d="M63.302494403447781,48.922761337229531c0-.024236240320533.000684881390043-.048341211700972.000958833948971-.072528939601398l-.000958833948971-.003207527857739v-9.757071458141581c-.097595598610496-4.645835860868829-3.140067043321324-6.980365384599281-8.446665058159851-6.980365384599281-2.800228895761393,0-5.964129811580278.654618197138916-8.388541457221436,2.315344283688319l1.781947239571309,3.927615011631133c1.46681048092978-.800049907418725,3.479083333208109-1.345583620579418,5.321619746739088-1.345583620579418,2.121442946439856,0,3.612429740571315.727335479119574,3.612429740571315,2.533518959009598v.593969096049477c-.909157220779889-.206032298938226-2.218353663640301-.38788828468023-3.576039709179895-.38788828468023-5.139806566090556,0-8.424931488600123,2.606284753410364-8.424931488600123,6.545990775321116,0,3.915472635260812,3.236635319830384,6.456959650418867,7.030901070438631,6.456959650418867,1.915293646919963,0,4.266993717930745-.711024489868578,5.576167331410034-2.674830568848847,1.015176860530119,1.94183565460844,2.454911697041098,3.339470261100359,6.518666861380552,2.388406860038231-.636015106279956-1.043022996538639-1.005554276949624-2.257252073137352-1.005554276949624-3.540328851848244ZM57.183284614948207,44.92276292329916c0,1.975897089250793-1.854704472960293,3.006312560799415-3.612429740571315,3.006312560799415-1.272806411468991,0-2.533490422270916-.545508030099882-2.533490422270916-2.000176134659341,0-1.418300902560077,1.187926777411121-2.206259799701002,3.491182904501329-2.206259799701002,1.006113596749856,0,2.01225002288993.157619745410557,2.654737258340901.315193832080695v.884929541480233Z"/>
        </g>
        <path class="cls-4" d="M35.371043256587654,27.02122625264019c0-1.994730389251345,1.587663835489366-3.58239422474071,3.582394224749805-3.58239422474071,1.994762975429694,0,3.582426810920879,1.587663835489366,3.582426810920879,3.58239422474071,0,1.994762975438789-1.587663835491185,3.582426810928155-3.582426810920879,3.582426810928155-1.99473038926044,0-3.582394224749805-1.587663835489366-3.582394224749805-3.582426810928155Z"/>
      </g>
    </g>
  </g>
</svg>