<?xml version="1.0" encoding="UTF-8"?>
<svg id="Icons" xmlns="http://www.w3.org/2000/svg" viewBox="0 0 90 90">
  <defs>
    <style>
      .cls-1 {
        fill: none;
      }

      .cls-2 {
        fill: #fff;
      }
    </style>
  </defs>
  <path class="cls-1" d="M0,0h90v90H0V0Z"/>
  <path class="cls-2" d="M71.25,52.5v-30c0-4.124999642372131-3.374998569488525-7.5-7.5-7.5H11.25c-4.125000089406967,0-7.5,3.375000357627869-7.5,7.5v30c0,4.125001430511475,3.374999910593033,7.5,7.5,7.5h52.5c4.125001430511475,0,7.5-3.374998569488525,7.5-7.5ZM37.5,48.75c-6.22499942779541,0-11.25-5.02500057220459-11.25-11.25s5.02500057220459-11.25,11.25-11.25,11.25,5.02500057220459,11.25,11.25-5.02500057220459,11.25-11.25,11.25ZM86.25,26.25v41.25c0,4.125001430511475-3.374998569488525,7.5-7.5,7.5H15v-7.5h63.75V26.25h7.5Z"/>
</svg>